<!DOCTYPE svg PUBLIC "-//W3C//DTD SVG 1.1//EN" "http://www.w3.org/Graphics/SVG/1.1/DTD/svg11.dtd">
<!-- Uploaded to: SVG Repo, www.svgrepo.com, Transformed by: SVG Repo Mixer Tools -->
<svg fill="#f7f5f0" width="256px" height="256px" viewBox="-6.5 0 32 32" version="1.1" xmlns="http://www.w3.org/2000/svg" stroke="#f7f5f0" stroke-width="0.544">
<g id="SVGRepo_bgCarrier" stroke-width="0"/>
<g id="SVGRepo_tracerCarrier" stroke-linecap="round" stroke-linejoin="round"/>
<g id="SVGRepo_iconCarrier"> <title>permille</title> <path d="M2.84 14.44c1.56 0 2.84-1.28 2.84-2.84s-1.28-2.84-2.84-2.84-2.84 1.24-2.84 2.8 1.28 2.88 2.84 2.88zM2.84 10.4c0.64 0 1.16 0.52 1.16 1.16s-0.52 1.16-1.16 1.16-1.16-0.52-1.16-1.16c0-0.64 0.52-1.16 1.16-1.16zM15.72 17.56c-0.8 0-1.48 0.32-2 0.84-0.52-0.52-1.24-0.84-2-0.84-1.56 0-2.84 1.28-2.84 2.84s1.28 2.84 2.84 2.84c0.8 0 1.48-0.32 2-0.84 0.52 0.52 1.24 0.84 2 0.84 1.56 0 2.84-1.28 2.84-2.84s-1.28-2.84-2.84-2.84zM11.72 21.6c-0.64 0-1.16-0.52-1.16-1.16s0.52-1.16 1.16-1.16c0.64 0 1.16 0.52 1.16 1.16s-0.52 1.16-1.16 1.16zM15.72 21.6c-0.64 0-1.16-0.52-1.16-1.16s0.52-1.16 1.16-1.16 1.16 0.52 1.16 1.16-0.52 1.16-1.16 1.16zM14.32 8.96c-0.32-0.32-0.84-0.32-1.2 0l-12.88 12.88c-0.32 0.32-0.32 0.84 0 1.2 0.16 0.16 0.4 0.24 0.6 0.24s0.44-0.080 0.6-0.24l12.88-12.88c0.32-0.32 0.32-0.88 0-1.2z"/> </g>
</svg>